<mxfile host="65bd71144e">
    <diagram name="Login" id="gdCSvqaaScrlXo4l8ALB">
        <mxGraphModel dx="1353" dy="907" grid="1" gridSize="10" guides="1" tooltips="1" connect="1" arrows="1" fold="1" page="1" pageScale="1" pageWidth="1600" pageHeight="900" math="0" shadow="0">
            <root>
                <mxCell id="0"/>
                <mxCell id="1" parent="0"/>
                <mxCell id="Qeco3BvltGo1VIxwUubx-1" value="" style="group" parent="1" connectable="0" vertex="1">
                    <mxGeometry x="114" y="35" width="1371.31" height="830" as="geometry"/>
                </mxCell>
                <mxCell id="3l-xP1_xD9ffacjxuy4Z-1" value="" style="rounded=0;whiteSpace=wrap;html=1;fillColor=default;fillStyle=auto;" parent="Qeco3BvltGo1VIxwUubx-1" vertex="1">
                    <mxGeometry width="1371.31" height="830" as="geometry"/>
                </mxCell>
                <mxCell id="3l-xP1_xD9ffacjxuy4Z-2" value="&lt;h3&gt;&lt;font style=&quot;font-size: 24px;&quot;&gt;username or email&lt;/font&gt;&lt;/h3&gt;" style="rounded=1;whiteSpace=wrap;html=1;" parent="Qeco3BvltGo1VIxwUubx-1" vertex="1">
                    <mxGeometry x="403.72449013157893" y="342.82608695652175" width="563.8610197368421" height="90.21739130434783" as="geometry"/>
                </mxCell>
                <mxCell id="3l-xP1_xD9ffacjxuy4Z-3" value="&lt;h3&gt;&lt;font style=&quot;font-size: 24px;&quot;&gt;password&lt;/font&gt;&lt;/h3&gt;" style="rounded=1;whiteSpace=wrap;html=1;" parent="Qeco3BvltGo1VIxwUubx-1" vertex="1">
                    <mxGeometry x="403.72449013157893" y="451.0869565217392" width="563.8610197368421" height="90.21739130434783" as="geometry"/>
                </mxCell>
                <mxCell id="3l-xP1_xD9ffacjxuy4Z-4" value="&lt;h1&gt;Login&lt;/h1&gt;" style="rounded=1;whiteSpace=wrap;html=1;" parent="Qeco3BvltGo1VIxwUubx-1" vertex="1">
                    <mxGeometry x="577.3936842105263" y="559.3478260869565" width="191.26165789473683" height="90.21739130434783" as="geometry"/>
                </mxCell>
                <mxCell id="3l-xP1_xD9ffacjxuy4Z-5" value="&lt;font style=&quot;font-size: 50px;&quot;&gt;Logo&lt;/font&gt;" style="ellipse;whiteSpace=wrap;html=1;aspect=fixed;" parent="Qeco3BvltGo1VIxwUubx-1" vertex="1">
                    <mxGeometry x="577.3936842105263" y="72.17391304347827" width="216.52173913043478" height="216.52173913043478" as="geometry"/>
                </mxCell>
                <mxCell id="3l-xP1_xD9ffacjxuy4Z-8" value="&lt;font style=&quot;font-size: 18px;&quot;&gt;Forget your password? Or create a new user?&lt;/font&gt;" style="text;html=1;strokeColor=none;fillColor=none;align=center;verticalAlign=middle;whiteSpace=wrap;rounded=0;" parent="Qeco3BvltGo1VIxwUubx-1" vertex="1">
                    <mxGeometry x="438.4583289473684" y="667.6086956521739" width="469.1323684210526" height="54.130434782608695" as="geometry"/>
                </mxCell>
            </root>
        </mxGraphModel>
    </diagram>
    <diagram id="TJnFh-B32YA2Bl4hxm8k" name="Homepage">
        <mxGraphModel dx="1353" dy="907" grid="1" gridSize="10" guides="1" tooltips="1" connect="1" arrows="1" fold="1" page="1" pageScale="1" pageWidth="1600" pageHeight="900" math="0" shadow="0">
            <root>
                <mxCell id="0"/>
                <mxCell id="1" parent="0"/>
                <mxCell id="ijkkR5gK_COIIXlTBllY-16" value="" style="group" parent="1" vertex="1" connectable="0">
                    <mxGeometry x="50" y="20" width="1550" height="860" as="geometry"/>
                </mxCell>
                <mxCell id="ijkkR5gK_COIIXlTBllY-1" value="" style="rounded=0;whiteSpace=wrap;html=1;fillColor=default;fillStyle=auto;" parent="ijkkR5gK_COIIXlTBllY-16" vertex="1">
                    <mxGeometry width="1500.0000000000002" height="860" as="geometry"/>
                </mxCell>
                <mxCell id="ijkkR5gK_COIIXlTBllY-2" value="&lt;font style=&quot;font-size: 30px;&quot;&gt;Homepage&lt;br&gt;Logo&lt;br&gt;&lt;/font&gt;" style="rounded=0;whiteSpace=wrap;html=1;" parent="ijkkR5gK_COIIXlTBllY-16" vertex="1">
                    <mxGeometry width="335.53" height="210" as="geometry"/>
                </mxCell>
                <mxCell id="ijkkR5gK_COIIXlTBllY-3" value="&lt;font style=&quot;font-size: 20px;&quot;&gt;Welcome to the Library! User XXX&lt;/font&gt;" style="rounded=0;whiteSpace=wrap;html=1;" parent="ijkkR5gK_COIIXlTBllY-16" vertex="1">
                    <mxGeometry x="335.53" width="684.47" height="90" as="geometry"/>
                </mxCell>
                <mxCell id="ijkkR5gK_COIIXlTBllY-4" value="&lt;font style=&quot;font-size: 20px;&quot;&gt;New books&lt;br&gt;&lt;br&gt;&lt;br&gt;&lt;br&gt;Title&lt;/font&gt;" style="rounded=1;whiteSpace=wrap;html=1;" parent="ijkkR5gK_COIIXlTBllY-16" vertex="1">
                    <mxGeometry x="381.56" y="470" width="196.88" height="300" as="geometry"/>
                </mxCell>
                <mxCell id="ijkkR5gK_COIIXlTBllY-10" value="&lt;span style=&quot;font-size: 20px;&quot;&gt;Library information:&lt;br&gt;news, hours&lt;/span&gt;" style="rounded=0;whiteSpace=wrap;html=1;" parent="ijkkR5gK_COIIXlTBllY-16" vertex="1">
                    <mxGeometry y="490" width="335.53" height="310" as="geometry"/>
                </mxCell>
                <mxCell id="ijkkR5gK_COIIXlTBllY-11" value="&lt;font style=&quot;font-size: 16px;&quot;&gt;View/Extend borrowed books&lt;/font&gt;" style="rounded=0;whiteSpace=wrap;html=1;" parent="ijkkR5gK_COIIXlTBllY-16" vertex="1">
                    <mxGeometry y="210.00173913043483" width="335.5263157894737" height="93.47826086956522" as="geometry"/>
                </mxCell>
                <mxCell id="ijkkR5gK_COIIXlTBllY-12" value="&lt;font style=&quot;font-size: 16px;&quot;&gt;Borrowing history&lt;/font&gt;" style="rounded=0;whiteSpace=wrap;html=1;" parent="ijkkR5gK_COIIXlTBllY-16" vertex="1">
                    <mxGeometry y="303.48" width="335.5263157894737" height="93.47826086956522" as="geometry"/>
                </mxCell>
                <mxCell id="ijkkR5gK_COIIXlTBllY-13" value="&lt;font style=&quot;font-size: 20px;&quot;&gt;Search books by category, title, author, or book title&lt;br&gt;&lt;/font&gt;" style="rounded=1;whiteSpace=wrap;html=1;" parent="ijkkR5gK_COIIXlTBllY-16" vertex="1">
                    <mxGeometry x="370" y="140" width="1100" height="200" as="geometry"/>
                </mxCell>
                <mxCell id="ijkkR5gK_COIIXlTBllY-14" value="&lt;font style=&quot;font-size: 20px;&quot;&gt;Currently Available:&lt;/font&gt;" style="text;strokeColor=none;fillColor=none;align=left;verticalAlign=middle;spacingLeft=4;spacingRight=4;overflow=hidden;points=[[0,0.5],[1,0.5]];portConstraint=eastwest;rotatable=0;whiteSpace=wrap;html=1;" parent="ijkkR5gK_COIIXlTBllY-16" vertex="1">
                    <mxGeometry x="381.56" y="380" width="200" height="56.09" as="geometry"/>
                </mxCell>
                <mxCell id="ijkkR5gK_COIIXlTBllY-15" value="&lt;font style=&quot;font-size: 16px;&quot;&gt;&lt;span style=&quot;&quot;&gt;Messages from admin&amp;nbsp;&lt;/span&gt;with&lt;br&gt;the contact admin button&lt;br&gt;&lt;/font&gt;" style="rounded=0;whiteSpace=wrap;html=1;" parent="ijkkR5gK_COIIXlTBllY-16" vertex="1">
                    <mxGeometry y="396.96" width="335.53" height="123.04" as="geometry"/>
                </mxCell>
                <mxCell id="ijkkR5gK_COIIXlTBllY-17" value="&lt;font style=&quot;font-size: 18px;&quot;&gt;Edit profile&amp;nbsp; &amp;nbsp;Sign out&lt;/font&gt;" style="rounded=0;whiteSpace=wrap;html=1;" parent="ijkkR5gK_COIIXlTBllY-16" vertex="1">
                    <mxGeometry x="1280" width="220" height="90" as="geometry"/>
                </mxCell>
                <mxCell id="NhFL1VNHEqokONy9dUI0-18" value="&lt;font style=&quot;font-size: 18px;&quot;&gt;Borrowed: #&amp;nbsp; &amp;nbsp;Expired: #&lt;/font&gt;" style="rounded=0;whiteSpace=wrap;html=1;" parent="ijkkR5gK_COIIXlTBllY-16" vertex="1">
                    <mxGeometry x="1020" width="260" height="90" as="geometry"/>
                </mxCell>
                <mxCell id="NhFL1VNHEqokONy9dUI0-19" value="&lt;font style=&quot;font-size: 20px;&quot;&gt;Copyright and contact information&lt;/font&gt;" style="rounded=0;whiteSpace=wrap;html=1;fontSize=24;" parent="ijkkR5gK_COIIXlTBllY-16" vertex="1">
                    <mxGeometry y="800" width="1500" height="60" as="geometry"/>
                </mxCell>
                <mxCell id="NhFL1VNHEqokONy9dUI0-23" value="&lt;font style=&quot;font-size: 20px;&quot;&gt;New books&lt;br&gt;&lt;br&gt;&lt;br&gt;&lt;br&gt;Title&lt;/font&gt;" style="rounded=1;whiteSpace=wrap;html=1;" parent="ijkkR5gK_COIIXlTBllY-16" vertex="1">
                    <mxGeometry x="601.56" y="470" width="196.88" height="300" as="geometry"/>
                </mxCell>
                <mxCell id="NhFL1VNHEqokONy9dUI0-24" value="&lt;font style=&quot;font-size: 20px;&quot;&gt;New books&lt;br&gt;&lt;br&gt;&lt;br&gt;&lt;br&gt;Title&lt;/font&gt;" style="rounded=1;whiteSpace=wrap;html=1;" parent="ijkkR5gK_COIIXlTBllY-16" vertex="1">
                    <mxGeometry x="821.56" y="470" width="196.88" height="300" as="geometry"/>
                </mxCell>
                <mxCell id="NhFL1VNHEqokONy9dUI0-25" value="&lt;font style=&quot;font-size: 20px;&quot;&gt;New books&lt;br&gt;&lt;br&gt;&lt;br&gt;&lt;br&gt;Title&lt;/font&gt;" style="rounded=1;whiteSpace=wrap;html=1;" parent="ijkkR5gK_COIIXlTBllY-16" vertex="1">
                    <mxGeometry x="1041.56" y="470" width="196.88" height="300" as="geometry"/>
                </mxCell>
                <mxCell id="NhFL1VNHEqokONy9dUI0-26" value="&lt;font style=&quot;font-size: 20px;&quot;&gt;New books&lt;br&gt;&lt;br&gt;&lt;br&gt;&lt;br&gt;Title&lt;/font&gt;" style="rounded=1;whiteSpace=wrap;html=1;" parent="ijkkR5gK_COIIXlTBllY-16" vertex="1">
                    <mxGeometry x="1261.56" y="470" width="196.88" height="300" as="geometry"/>
                </mxCell>
            </root>
        </mxGraphModel>
    </diagram>
    <diagram id="53iIGrbOYdZx4-FO40pd" name="Admin">
        <mxGraphModel dx="1353" dy="907" grid="1" gridSize="10" guides="1" tooltips="1" connect="1" arrows="1" fold="1" page="1" pageScale="1" pageWidth="1600" pageHeight="900" math="0" shadow="0">
            <root>
                <mxCell id="0"/>
                <mxCell id="1" parent="0"/>
                <mxCell id="nTkX4T03PNZkfc8XdfWt-1" value="" style="group" parent="1" vertex="1" connectable="0">
                    <mxGeometry x="50" y="20" width="1550" height="860" as="geometry"/>
                </mxCell>
                <mxCell id="nTkX4T03PNZkfc8XdfWt-2" value="" style="rounded=0;whiteSpace=wrap;html=1;fillColor=default;fillStyle=auto;" parent="nTkX4T03PNZkfc8XdfWt-1" vertex="1">
                    <mxGeometry width="1500.0000000000002" height="860" as="geometry"/>
                </mxCell>
                <mxCell id="nTkX4T03PNZkfc8XdfWt-3" value="&lt;font style=&quot;font-size: 30px;&quot;&gt;Homepage&lt;br&gt;Logo&lt;br&gt;&lt;/font&gt;" style="rounded=0;whiteSpace=wrap;html=1;" parent="nTkX4T03PNZkfc8XdfWt-1" vertex="1">
                    <mxGeometry width="335.53" height="210" as="geometry"/>
                </mxCell>
                <mxCell id="nTkX4T03PNZkfc8XdfWt-4" value="&lt;font style=&quot;font-size: 20px;&quot;&gt;Welcome to the Library! Admin&amp;nbsp;XXX&lt;/font&gt;" style="rounded=0;whiteSpace=wrap;html=1;" parent="nTkX4T03PNZkfc8XdfWt-1" vertex="1">
                    <mxGeometry x="335.53" width="944.47" height="90" as="geometry"/>
                </mxCell>
                <mxCell id="nTkX4T03PNZkfc8XdfWt-5" value="&lt;font style=&quot;font-size: 20px;&quot;&gt;New books&lt;br&gt;&lt;br&gt;&lt;br&gt;&lt;br&gt;Title&lt;/font&gt;" style="rounded=1;whiteSpace=wrap;html=1;" parent="nTkX4T03PNZkfc8XdfWt-1" vertex="1">
                    <mxGeometry x="381.56" y="470" width="196.88" height="300" as="geometry"/>
                </mxCell>
                <mxCell id="nTkX4T03PNZkfc8XdfWt-6" value="&lt;span style=&quot;font-size: 20px;&quot;&gt;Library information:&lt;br&gt;news, hours&lt;/span&gt;" style="rounded=0;whiteSpace=wrap;html=1;" parent="nTkX4T03PNZkfc8XdfWt-1" vertex="1">
                    <mxGeometry y="490" width="335.53" height="310" as="geometry"/>
                </mxCell>
                <mxCell id="nTkX4T03PNZkfc8XdfWt-7" value="&lt;font style=&quot;font-size: 16px;&quot;&gt;View the booklist&lt;/font&gt;" style="rounded=0;whiteSpace=wrap;html=1;" parent="nTkX4T03PNZkfc8XdfWt-1" vertex="1">
                    <mxGeometry y="210.00173913043483" width="335.5263157894737" height="93.47826086956522" as="geometry"/>
                </mxCell>
                <mxCell id="nTkX4T03PNZkfc8XdfWt-8" value="&lt;font style=&quot;font-size: 16px;&quot;&gt;Add a book to library&lt;/font&gt;" style="rounded=0;whiteSpace=wrap;html=1;" parent="nTkX4T03PNZkfc8XdfWt-1" vertex="1">
                    <mxGeometry y="303.48" width="335.5263157894737" height="93.47826086956522" as="geometry"/>
                </mxCell>
                <mxCell id="nTkX4T03PNZkfc8XdfWt-9" value="&lt;font style=&quot;font-size: 20px;&quot;&gt;Search books by category, title, author, or book title&lt;br&gt;&lt;/font&gt;" style="rounded=1;whiteSpace=wrap;html=1;" parent="nTkX4T03PNZkfc8XdfWt-1" vertex="1">
                    <mxGeometry x="370" y="140" width="1100" height="200" as="geometry"/>
                </mxCell>
                <mxCell id="nTkX4T03PNZkfc8XdfWt-10" value="&lt;font style=&quot;font-size: 20px;&quot;&gt;Currently Available:&lt;/font&gt;" style="text;strokeColor=none;fillColor=none;align=left;verticalAlign=middle;spacingLeft=4;spacingRight=4;overflow=hidden;points=[[0,0.5],[1,0.5]];portConstraint=eastwest;rotatable=0;whiteSpace=wrap;html=1;" parent="nTkX4T03PNZkfc8XdfWt-1" vertex="1">
                    <mxGeometry x="381.56" y="380" width="200" height="56.09" as="geometry"/>
                </mxCell>
                <mxCell id="nTkX4T03PNZkfc8XdfWt-11" value="&lt;font style=&quot;font-size: 16px;&quot;&gt;&lt;span style=&quot;&quot;&gt;Messages from users&amp;nbsp;&lt;/span&gt;with&lt;br&gt;the contact button&lt;br&gt;&lt;/font&gt;" style="rounded=0;whiteSpace=wrap;html=1;" parent="nTkX4T03PNZkfc8XdfWt-1" vertex="1">
                    <mxGeometry y="396.96" width="335.53" height="123.04" as="geometry"/>
                </mxCell>
                <mxCell id="nTkX4T03PNZkfc8XdfWt-12" value="&lt;font style=&quot;font-size: 18px;&quot;&gt;Edit profile&amp;nbsp; &amp;nbsp;Sign out&lt;/font&gt;" style="rounded=0;whiteSpace=wrap;html=1;" parent="nTkX4T03PNZkfc8XdfWt-1" vertex="1">
                    <mxGeometry x="1280" width="220" height="90" as="geometry"/>
                </mxCell>
                <mxCell id="nTkX4T03PNZkfc8XdfWt-14" value="&lt;font style=&quot;font-size: 20px;&quot;&gt;Copyright and contact information&lt;/font&gt;" style="rounded=0;whiteSpace=wrap;html=1;fontSize=24;" parent="nTkX4T03PNZkfc8XdfWt-1" vertex="1">
                    <mxGeometry y="800" width="1500" height="60" as="geometry"/>
                </mxCell>
                <mxCell id="nTkX4T03PNZkfc8XdfWt-15" value="&lt;font style=&quot;font-size: 20px;&quot;&gt;New books&lt;br&gt;&lt;br&gt;&lt;br&gt;&lt;br&gt;Title&lt;/font&gt;" style="rounded=1;whiteSpace=wrap;html=1;" parent="nTkX4T03PNZkfc8XdfWt-1" vertex="1">
                    <mxGeometry x="601.56" y="470" width="196.88" height="300" as="geometry"/>
                </mxCell>
                <mxCell id="nTkX4T03PNZkfc8XdfWt-16" value="&lt;font style=&quot;font-size: 20px;&quot;&gt;New books&lt;br&gt;&lt;br&gt;&lt;br&gt;&lt;br&gt;Title&lt;/font&gt;" style="rounded=1;whiteSpace=wrap;html=1;" parent="nTkX4T03PNZkfc8XdfWt-1" vertex="1">
                    <mxGeometry x="821.56" y="470" width="196.88" height="300" as="geometry"/>
                </mxCell>
                <mxCell id="nTkX4T03PNZkfc8XdfWt-17" value="&lt;font style=&quot;font-size: 20px;&quot;&gt;New books&lt;br&gt;&lt;br&gt;&lt;br&gt;&lt;br&gt;Title&lt;/font&gt;" style="rounded=1;whiteSpace=wrap;html=1;" parent="nTkX4T03PNZkfc8XdfWt-1" vertex="1">
                    <mxGeometry x="1041.56" y="470" width="196.88" height="300" as="geometry"/>
                </mxCell>
                <mxCell id="nTkX4T03PNZkfc8XdfWt-18" value="&lt;font style=&quot;font-size: 20px;&quot;&gt;New books&lt;br&gt;&lt;br&gt;&lt;br&gt;&lt;br&gt;Title&lt;/font&gt;" style="rounded=1;whiteSpace=wrap;html=1;" parent="nTkX4T03PNZkfc8XdfWt-1" vertex="1">
                    <mxGeometry x="1261.56" y="470" width="196.88" height="300" as="geometry"/>
                </mxCell>
            </root>
        </mxGraphModel>
    </diagram>
    <diagram id="tiTMuRsCYbU7dIwwjG6u" name="Search results">
        <mxGraphModel dx="1353" dy="907" grid="1" gridSize="10" guides="1" tooltips="1" connect="1" arrows="1" fold="1" page="1" pageScale="1" pageWidth="1600" pageHeight="900" math="0" shadow="0">
            <root>
                <mxCell id="0"/>
                <mxCell id="1" parent="0"/>
            </root>
        </mxGraphModel>
    </diagram>
</mxfile>